<svg xmlns="http://www.w3.org/2000/svg" width="137" height="52" viewBox="0 0 137 52" fill="none">
  <path d="M23.9753 26.0718C24.0446 26.0718 24.1833 26.1411 24.3219 26.2277C24.5472 26.349 24.8418 26.5223 25.1884 26.5223C25.8469 26.5223 26.4014 25.9505 26.4014 25.2919C26.4014 24.6334 25.8815 24.1135 25.2404 24.1135C23.802 24.1135 21.6531 26.4877 17.3554 31.7905C13.8029 36.2095 11.3074 38.9476 9.14125 40.8019C11.7233 36.8681 13.335 33.1076 14.1841 28.9831C16.8702 28.4632 18.5338 26.661 18.5338 25.2746C18.5338 24.4601 18.014 23.9056 17.2515 23.9056C15.8824 23.9056 14.2188 25.3439 12.5552 27.9607C12.2086 27.7874 12.0353 27.3542 11.758 26.7303C11.6887 26.5743 11.6194 26.401 11.5327 26.2104C10.8222 24.5988 9.85175 23.8709 8.37875 23.8709C6.36852 23.8709 4.0637 24.8587 2.38274 26.4357C0.996377 27.7527 0.199219 29.4857 0.199219 31.1666C0.199219 33.1942 1.49893 34.5459 3.45717 34.5459C6.35119 34.5459 8.8813 31.4266 8.8813 27.8914C8.8813 27.3368 8.76 27.0422 8.50005 27.0422C8.18812 27.0422 8.10147 27.3542 7.96284 27.8567C7.85886 28.2553 7.7029 28.8098 7.39096 29.451C6.28188 31.7212 4.5316 33.1249 2.8333 33.1249C1.75888 33.1249 1.01371 32.2757 1.01371 31.0453C1.01371 29.4684 1.91484 27.8221 3.49183 26.5397C4.70489 25.5346 6.24722 24.8934 7.4083 24.8934C8.22278 24.8934 8.50005 25.4306 8.95062 26.2451C9.12392 26.5743 9.33187 26.9729 9.60914 27.3368C10.337 28.3419 11.1168 28.8445 12.1046 28.9658C11.3421 30.6121 10.8222 32.3624 10.3023 34.0607C9.73045 35.9323 9.14125 37.8558 8.24011 39.6754C7.66824 40.8365 7.16568 41.599 6.81909 42.0842C6.50716 42.5521 6.31654 42.8294 6.31654 43.1067C6.31654 43.3666 6.54182 43.5573 6.74977 43.5573C7.21767 43.5573 10.389 41.2871 14.808 36.1922C16.4716 34.286 17.858 32.5703 19.0884 31.0627C21.4279 28.1686 23.1435 26.0718 23.9753 26.0718ZM14.4267 28.082C15.2239 26.0198 16.333 24.7547 17.3381 24.7547C17.5114 24.7547 17.7367 24.98 17.7367 25.2746C17.7367 26.1411 16.4543 27.6314 14.4267 28.082Z" fill="#E88C01"/>
  <path d="M20.6482 31.5998C20.6482 32.1544 21.0641 32.5703 21.6013 32.5703C22.2945 32.5703 22.8664 31.8078 22.8664 31.1839C22.8664 30.612 22.4851 30.2135 21.9479 30.2135C21.2374 30.2135 20.6482 30.976 20.6482 31.5998Z" fill="#E88C01"/>
  <path d="M42.7261 38.9477C42.5355 38.9477 42.3968 39.0863 42.0849 39.4503C41.9116 39.6409 41.6863 39.9008 41.3744 40.2128C39.5201 42.1363 38.9136 42.3443 38.7403 42.3443C38.6017 42.3443 38.5843 42.3443 38.5843 42.1537C38.5843 41.7204 38.9656 41.1139 39.5028 40.2648L42.5875 35.4125L40.3346 35.5511L39.7108 36.4696C39.5895 35.7764 38.9829 35.3258 38.1338 35.3258C36.7301 35.3258 34.9798 36.279 33.3162 37.9253C32.8136 38.4278 32.467 38.8091 32.2591 39.0863C32.1551 39.173 32.0511 39.2943 31.8952 39.4676C31.7219 39.6582 31.5139 39.9008 31.2193 40.1954C29.8329 41.5818 29.0011 42.379 28.2733 42.379C28.1346 42.379 28.0307 42.275 28.0307 42.119C28.0307 41.7378 28.5679 40.8886 29.2611 39.8142L37.4753 26.7651L35.2051 27.077L30.0582 35.0659C30.0582 35.0659 29.3824 35.9324 27.8227 37.6307L26.9909 38.5318C26.7829 38.7744 26.627 38.965 26.5057 39.121C26.419 39.2077 26.3151 39.3116 26.1764 39.4849C26.0031 39.6755 25.7952 39.9355 25.5006 40.2128C24.1142 41.5991 23.2824 42.3963 22.5545 42.3963C22.4159 42.3963 22.3119 42.2923 22.3119 42.1363C22.3119 41.7551 22.8491 40.9059 23.5423 39.8315L31.7565 26.7824L29.4863 27.0943L24.3395 35.0832C24.3395 35.0832 23.6636 35.9497 22.104 37.648L21.2722 38.5491C21.0469 38.8091 20.9082 38.9824 20.8043 39.1037C20.683 39.2077 20.5443 39.3636 20.319 39.6062C20.1804 39.7795 19.9898 39.9702 19.7645 40.2128C18.3261 41.7378 17.4597 42.3963 16.9051 42.3963C16.8012 42.3963 16.6972 42.2576 16.6972 42.1363C16.6972 41.7551 17.2344 40.9059 17.9276 39.8315L20.7176 35.4298L18.3261 35.6031L18.2742 35.6724C14.9296 39.1383 14.9296 39.4503 14.9296 39.5716C14.9296 39.7275 15.0335 39.8835 15.2588 39.8835C15.4841 39.8835 15.6574 39.6929 16.0906 39.2077C15.5881 40.0741 15.3108 40.7327 15.3108 41.3912C15.3108 42.5003 15.9693 43.2454 16.9398 43.2454C17.8236 43.2454 18.7421 42.4656 20.2497 40.9233C20.8736 40.2648 21.1855 39.9355 21.3588 39.7102C21.4455 39.6236 21.5494 39.5196 21.6707 39.3636C21.2375 40.1261 20.9949 40.7673 20.9949 41.3912C20.9949 42.5003 21.6534 43.2454 22.6239 43.2454C23.5077 43.2454 24.4261 42.4656 25.9338 40.9233C26.5577 40.2648 26.8696 39.9355 27.0429 39.7102C27.1295 39.6236 27.2335 39.5196 27.3548 39.3636C26.9216 40.1261 26.679 40.7673 26.679 41.3912C26.679 42.5003 27.3375 43.2454 28.3079 43.2454C29.1917 43.2454 30.1102 42.4656 31.6179 40.9233C32.0338 40.5074 32.2937 40.2128 32.4844 40.0048C32.467 40.1261 32.467 40.2648 32.467 40.3861C32.467 42.1537 33.1255 43.2454 34.2 43.2454C35.0838 43.2454 36.0716 42.6562 37.1113 41.4951C37.1113 41.5818 37.094 41.6511 37.094 41.7204C37.094 42.6736 37.5792 43.2454 38.3764 43.2454C39.4162 43.2454 40.352 42.379 41.773 40.9233C42.9341 39.7622 43.0207 39.5023 43.0207 39.3116C43.1073 39.121 42.986 38.9477 42.7261 38.9477ZM38.8443 36.7469C38.8443 37.7693 38.0471 39.2596 36.7128 40.7327C35.673 41.8764 34.8758 42.2923 34.4772 42.2923C34.1133 42.2923 34.0787 41.8937 34.0787 41.7204C34.0787 41.0619 34.4599 39.7275 35.569 38.1852C36.4875 36.9202 37.4579 36.1923 38.2378 36.1923C38.567 36.175 38.8443 36.4349 38.8443 36.7469Z" fill="#E88C01"/>
  <path d="M78.962 38.9474C78.7714 38.9474 78.6154 39.1207 78.1129 39.6579C77.9223 39.8659 77.697 40.1258 77.4197 40.4204C77.4544 40.1951 77.4717 39.9698 77.4717 39.7446C77.4717 39.2073 77.3504 38.6701 77.2117 38.1502C77.0904 37.6477 76.9691 37.1451 76.9691 36.6599C76.9691 36.14 77.0385 36.1054 77.2984 36.0014C77.3504 35.984 77.4197 35.9494 77.4717 35.9321C77.9223 35.7414 78.1475 35.4642 78.1475 35.0829C78.1475 34.6323 77.8703 34.3724 77.4024 34.3724C76.8998 34.3724 76.4839 34.771 76.1546 35.5681C75.6694 36.088 75.2362 36.5559 74.8549 36.9718C73.9885 37.9076 73.4339 38.5142 73.122 38.8954L72.7754 39.294C72.0649 40.0738 71.2851 40.3511 70.7998 40.3511H70.7825C71.6663 39.1727 72.0302 38.2715 72.0302 37.3704C72.0302 36.1054 71.2331 35.2909 70.02 35.2909C68.651 35.2909 66.8834 36.3306 65.3064 38.0463C64.8731 38.5315 64.5785 38.8607 64.4226 39.0687L64.3186 39.1727C64.2146 39.294 64.076 39.4326 63.92 39.5886C62.395 41.0789 61.1819 41.7028 59.7089 41.7028C58.4439 41.7028 56.8322 41.3735 55.1513 40.767C57.2135 39.0514 58.9118 36.7639 60.6101 33.3846C65.7916 31.1838 69.1189 28.1858 69.1189 25.7423C69.1189 24.8758 68.4777 24.252 67.5765 24.252C66.4848 24.252 65.0638 25.0318 63.0189 26.7994C61.026 24.7025 58.5652 23.6108 55.8965 23.6108C51.8587 23.6108 48.93 26.0022 48.93 29.2949C48.93 32.2235 51.5987 34.2684 55.4112 34.2684C56.2084 34.2684 56.9709 34.2164 57.768 34.0951C56.1391 37.2318 54.874 39.5019 53.7823 40.3511C51.9453 39.8312 50.4203 39.45 48.8953 39.45C47.1451 39.45 46.0533 40.1431 46.0533 41.2522C46.0533 42.4133 47.3183 43.1585 49.2766 43.1585C50.6803 43.1585 51.9973 42.7599 53.6436 41.8414C55.8791 42.6732 57.6294 43.2105 58.8945 43.2105C60.4195 43.2105 62.2737 42.2573 64.2146 40.4551C64.3879 40.2818 64.5612 40.1258 64.6998 39.9698C64.6825 40.0911 64.6825 40.1951 64.6825 40.2991C64.6825 42.1534 65.393 43.2105 66.6407 43.2105C67.6632 43.2105 68.8936 42.4826 70.1413 41.1309C70.3493 41.1656 70.5226 41.1656 70.6612 41.1656C71.701 41.1656 72.7234 40.6457 73.4686 39.7446L73.6072 39.5713C73.7805 39.398 73.9711 39.1553 74.2657 38.8261C74.7163 38.2889 75.3402 37.5784 76.172 36.6946C76.1893 36.8852 76.1893 37.0238 76.1893 37.1625C76.1893 40.5764 74.5257 42.344 73.7978 42.344C73.7112 42.344 73.6419 42.3266 73.6419 42.292C73.6419 42.1534 73.7112 41.9974 73.7978 41.8414C73.8845 41.6681 73.9538 41.4948 73.9538 41.3042C73.9538 40.9056 73.6072 40.5937 73.1913 40.5937C72.6541 40.5937 72.1689 41.0963 72.1689 41.6508C72.1689 42.5866 72.966 43.2278 74.1444 43.2278C75.5828 43.2278 76.7265 42.3093 78.2342 40.7323C79.0833 39.8659 79.3086 39.5539 79.3086 39.3286C79.3433 39.138 79.222 38.9474 78.962 38.9474ZM69.1535 40.871C68.2177 41.8934 67.3166 42.344 66.8834 42.344C66.5888 42.344 66.3115 42.2573 66.3115 41.6335C66.3115 40.923 66.6754 39.6406 67.7152 38.1676C68.651 36.8332 69.4655 36.1747 70.1586 36.1747C70.6439 36.1747 70.9211 36.5559 70.9211 37.2491C70.9385 38.3062 70.2453 39.6926 69.1535 40.871ZM58.6692 32.4662C57.6467 32.6221 56.8496 32.7088 56.1737 32.7088C52.5345 32.7088 49.9871 31.1145 49.9871 28.8443C49.9871 26.2622 52.4652 24.3906 55.8618 24.3906C58.3919 24.3906 60.6621 25.4304 62.447 27.3886C61.1126 28.775 59.8996 30.3866 58.6692 32.4662ZM64.4399 29.7454C64.5785 29.7454 64.7518 29.6414 64.7518 29.3642C64.7518 29.2602 64.7518 28.9829 63.8854 27.7699C65.4104 25.9329 66.8314 25.1184 67.5592 25.1184C68.1138 25.1184 68.339 25.3611 68.339 25.8983C68.339 27.4926 65.9649 29.988 61.4246 31.773C61.9791 30.6292 62.603 29.5721 63.3655 28.4804C63.5561 28.7403 63.7121 28.9829 63.816 29.1562C64.0586 29.5201 64.1973 29.7454 64.4399 29.7454ZM52.4825 41.3909C51.4948 42.032 50.4203 42.3613 49.3459 42.3613C47.9595 42.3613 47.0931 41.8068 47.0931 41.2869C47.0931 40.7843 47.6823 40.4724 48.67 40.4724C49.8485 40.4897 51.0962 40.8883 52.4825 41.3909Z" fill="#E88C01"/>
  <path d="M136.635 38.9475C136.444 38.9475 136.288 39.1208 135.785 39.658C135.612 39.8659 135.37 40.1259 135.092 40.4205C135.127 40.1952 135.144 39.9699 135.144 39.7446C135.144 39.2074 135.023 38.6702 134.884 38.1503C134.763 37.6478 134.642 37.1452 134.642 36.66C134.642 36.1401 134.711 36.1054 134.971 36.0014C135.023 35.9841 135.092 35.9495 135.144 35.9321C135.595 35.7415 135.82 35.4642 135.82 35.083C135.82 34.6324 135.543 34.3725 135.075 34.3725C134.572 34.3725 134.156 34.771 133.827 35.5682C133.377 36.0534 132.978 36.504 132.614 36.9026L132.545 36.9892C131.453 38.1676 130.881 38.8088 130.639 39.1554C130.552 39.2421 130.431 39.3634 130.292 39.5367C130.067 39.7793 129.772 40.1259 129.339 40.5591C128.022 41.8588 127.138 42.3787 126.324 42.3787C125.786 42.3787 125.509 42.0494 125.509 41.4083C125.509 41.2003 125.561 40.8884 125.613 40.5591C128.784 39.7966 130.829 38.3063 130.829 36.7466C130.829 35.9148 130.153 35.3256 129.183 35.3256C127.623 35.3256 125.942 36.2787 124.279 38.081C123.811 38.5835 123.499 38.9475 123.36 39.1727C123.274 39.2594 123.17 39.398 123.031 39.5367C122.546 40.1085 121.645 41.1137 120.189 42.1881C121.263 40.1779 122.494 38.0117 123.863 35.7762L124.088 35.4122L121.956 35.5509L121.887 35.6549C119.166 40.2472 116.55 42.1881 115.96 42.1881C115.891 42.1881 115.77 42.0668 115.77 41.8935C115.77 41.5989 116.272 40.8191 116.983 39.7446L117.156 39.4847C117.78 38.5662 118.248 37.7864 118.248 36.8853C118.248 35.9321 117.711 35.2909 116.914 35.2909C115.891 35.2909 115.007 36.1747 113.638 37.6304L112.806 38.5316C112.599 38.7742 112.425 38.9648 112.321 39.1208C112.235 39.2074 112.131 39.3287 111.975 39.502C111.749 39.7446 111.455 40.0912 111.022 40.5244C109.705 41.8242 108.821 42.344 108.006 42.344C107.469 42.344 107.192 42.0148 107.192 41.3736C107.192 41.1656 107.244 40.8537 107.296 40.5244C110.467 39.762 112.512 38.2716 112.512 36.712C112.512 35.8801 111.836 35.2909 110.866 35.2909C109.306 35.2909 107.625 36.2441 105.961 38.0463C105.563 38.4796 105.268 38.8088 105.112 39.0341C105.026 39.1208 104.939 39.2421 104.8 39.398C104.627 39.606 104.384 39.9006 104.072 40.2472C102.547 41.9108 101.82 42.0841 101.577 42.0841C101.369 42.0841 101.213 41.8242 101.213 41.5122C101.213 41.079 101.369 40.4898 101.542 39.8139C101.768 38.9475 102.028 37.977 102.028 37.0066C102.028 35.8801 101.438 34.8057 100.399 34.0605C103.223 33.4713 105.493 31.2185 105.493 28.9657C105.493 27.5446 104.627 26.2103 103.154 25.3438C103.31 25.2398 103.431 25.1705 103.553 25.1012C103.864 24.9106 104.072 24.7893 104.072 24.5466C104.072 24.3907 103.934 24.2174 103.691 24.2174C103.414 24.2174 103.119 24.408 102.634 24.7199C102.53 24.7893 102.426 24.8586 102.305 24.9452C100.953 24.3733 99.2895 24.0961 97.3659 24.0961C96.3261 24.0961 95.2864 24.2174 94.1773 24.46C93.2761 23.8015 92.1151 23.4722 90.7114 23.4722C88.1813 23.4722 85.6858 24.7373 84.0395 26.8688C82.8784 28.3591 82.4972 29.6242 82.4972 29.9881C82.4972 30.2307 82.6531 30.3867 82.8958 30.3867C83.121 30.3867 83.1904 30.1961 83.3117 29.8495C83.4503 29.4336 83.7102 28.7577 84.2475 27.9432C85.7205 25.7944 88.2506 24.2867 90.4168 24.2867C91.4565 24.2867 92.2364 24.4427 92.8949 24.7893C87.6614 26.4702 84.5247 30.3867 84.5247 33.2634C84.5247 35.2909 85.7725 36.4867 87.8867 36.4867C89.5676 36.4867 91.7165 35.4989 93.0855 34.0605C94.6452 32.4489 95.5983 30.1787 95.5983 28.1338C95.5983 27.0248 95.321 26.0543 94.7665 25.1705C95.5636 24.9799 96.3954 24.8932 97.2619 24.8932C98.9949 24.8932 100.295 25.1185 101.334 25.6037C98.1284 27.9952 96.3435 30.9239 94.5065 34.2165C91.6818 39.3287 89.4636 42.2921 86.4656 42.2921C85.5472 42.2921 84.9926 41.8935 84.9926 41.5296C84.9926 41.3909 85.0619 41.235 85.1313 41.0443C85.2179 40.8191 85.3046 40.5938 85.3046 40.3685C85.3046 39.658 84.6807 39.0341 83.9702 39.0341C83.1557 39.0341 82.5492 39.762 82.5492 40.7324C82.5492 42.1534 83.9529 43.1585 85.9804 43.1585C89.5503 43.1585 93.2415 40.4898 96.1008 35.8455C96.5167 35.1523 96.9153 34.4765 97.2793 33.8179C97.2793 33.8353 97.2793 33.8353 97.2793 33.8526C97.2793 34.0259 97.3486 34.5631 98.2844 34.5631C98.527 34.5631 98.7523 34.5458 98.9602 34.5111C99.0988 34.4938 99.2028 34.4765 99.3068 34.4765C99.688 34.4765 99.9827 34.9443 99.9827 35.5682C99.9827 36.1574 99.8094 36.8159 99.6361 37.5091C99.4281 38.3236 99.2028 39.1727 99.2028 40.0392C99.2028 41.8415 100.277 43.0546 101.282 43.0546C102.166 43.0546 103.293 42.2747 104.731 40.6804C105.026 40.3512 105.268 40.0566 105.441 39.8313C105.441 39.9352 105.424 40.0219 105.424 40.1259C105.424 41.8762 106.447 43.1412 107.85 43.1412C108.994 43.1412 110.103 42.5 111.663 40.9577C112.356 40.2472 112.685 39.8833 112.876 39.6406C112.98 39.5367 113.101 39.398 113.274 39.1901C113.43 38.9995 113.638 38.7742 113.881 38.4969C114.973 37.3185 116.151 36.1228 116.688 36.1228C116.81 36.1228 116.844 36.1401 116.844 36.1401C116.844 36.1574 116.844 36.2094 116.844 36.2267C116.844 36.608 116.307 37.3878 115.856 38.029L115.718 38.2023C115.042 39.1034 114.418 39.9699 114.418 41.183C114.418 42.3267 115.094 42.9333 115.735 42.9333C116.532 42.9333 117.659 42.1881 119.097 40.7324L117.867 43.1065C112.858 46.0352 110.918 47.8722 110.918 49.6571C110.918 50.6276 111.472 51.1821 112.46 51.1821C114.279 51.1821 116.792 48.4094 119.357 43.5918C121.558 42.2401 123.1 40.7151 123.759 39.8659C123.759 39.9526 123.741 40.0392 123.741 40.1259C123.741 41.8762 124.764 43.1412 126.168 43.1412C127.311 43.1412 128.42 42.5 129.98 40.9577C130.725 40.1952 131.072 39.8139 131.245 39.5713C131.418 39.398 131.644 39.1381 131.956 38.7742C132.406 38.237 133.03 37.5264 133.862 36.6426C133.879 36.8333 133.879 36.9719 133.879 37.1105C133.879 40.5245 132.216 42.2921 131.488 42.2921C131.401 42.2921 131.332 42.2747 131.332 42.2401C131.332 42.1014 131.401 41.9455 131.488 41.7895C131.574 41.6162 131.644 41.4429 131.644 41.2523C131.644 40.8537 131.297 40.5418 130.881 40.5418C130.344 40.5418 129.859 41.0443 129.859 41.5989C129.859 42.5347 130.656 43.1759 131.834 43.1759C133.273 43.1759 134.416 42.2574 135.924 40.6804C136.773 39.8139 136.998 39.502 136.998 39.2767C137.016 39.1381 136.895 38.9475 136.635 38.9475ZM129.547 36.3827C129.547 37.1799 128.299 38.9648 125.925 39.6233C126.93 37.2665 128.611 36.0881 129.304 36.0881C129.425 36.1054 129.547 36.2267 129.547 36.3827ZM107.625 39.6406C108.63 37.2838 110.311 36.1054 111.004 36.1054C111.143 36.1054 111.247 36.2441 111.247 36.4C111.23 37.1799 109.999 38.9648 107.625 39.6406ZM102.218 26.1583C102.946 26.7128 103.327 27.51 103.327 28.4804C103.327 31.3398 100.936 33.4193 99.7054 33.4193C99.5321 33.4193 99.3415 33.3674 99.1162 33.3154C98.8562 33.2461 98.5963 33.1767 98.3017 33.1767C97.9898 33.1767 97.7471 33.2634 97.5912 33.402C97.9204 32.8128 98.2324 32.2409 98.5096 31.6864C99.8267 29.2429 100.866 27.302 102.218 26.1583ZM94.3332 27.5793C94.3332 29.3469 93.5014 31.2532 91.9937 32.9341C90.5554 34.5458 88.9264 35.4642 87.5574 35.4642C86.2577 35.4642 85.4778 34.6671 85.4778 33.3154C85.4778 30.5426 88.5625 26.8688 93.7267 25.4824C94.1426 25.985 94.3332 26.6435 94.3332 27.5793ZM117.243 44.4756C115.337 48.1494 113.898 50.4196 112.633 50.4196C112.269 50.4196 112.113 50.2117 112.113 49.7611C112.096 48.4267 114.02 46.4511 117.243 44.4756Z" fill="#E88C01"/>
  <path d="M98.4228 16.3332H85.9976C85.755 16.3332 85.547 16.5411 85.547 16.7838V17.8062C85.547 18.0488 85.755 18.2568 85.9976 18.2568H98.4228C98.6654 18.2568 98.8734 18.0488 98.8734 17.8062V16.7838C98.8734 16.5411 98.6654 16.3332 98.4228 16.3332Z" fill="#E88C01"/>
  <path d="M77.8526 8.06682V8.10148C77.8699 8.18812 77.8699 8.25744 77.8699 8.32676C77.8699 9.17591 77.1767 9.86909 76.3276 9.86909C75.4784 9.86909 74.7853 9.17591 74.7853 8.32676C74.7853 7.75489 75.0972 7.235 75.6171 6.95773L75.6517 6.9404L74.9239 1.46427L72.4978 6.42051L72.5324 6.45517C72.8097 6.71512 72.9657 7.06171 72.9657 7.44296C72.9657 8.18812 72.3591 8.81199 71.5966 8.81199C70.8515 8.81199 70.2276 8.20545 70.2276 7.44296C70.2276 6.87108 70.5915 6.3512 71.1287 6.16057L71.1981 6.14324L69.1185 0.199219L67.0736 6.09125L67.0563 6.16057L67.1256 6.1779C67.6628 6.36853 68.0267 6.88841 68.0267 7.46028C68.0267 8.20545 67.4202 8.82932 66.6577 8.82932C65.9126 8.82932 65.2887 8.22278 65.2887 7.46028C65.2887 7.07903 65.4446 6.73245 65.7219 6.4725L65.7566 6.43784L63.3305 1.4816L62.6026 6.95773L62.6373 6.97506C63.1398 7.235 63.4691 7.77222 63.4691 8.34409C63.4691 9.19324 62.7759 9.88642 61.9268 9.88642C61.0776 9.88642 60.3844 9.19324 60.3844 8.34409C60.3844 8.27477 60.3844 8.20545 60.4018 8.1188V8.08415L56.312 4.39296L60.679 11.6714L60.6964 11.706H77.61L81.9943 4.39296L77.9046 8.04949L77.8526 8.06682Z" fill="#E88C01"/>
  <path d="M77.4193 12.5725H60.8697C60.5404 12.5725 60.2805 12.8324 60.2805 13.1617V14.5307C60.2805 14.86 60.5404 15.1199 60.8697 15.1199H77.4193C77.7486 15.1199 78.0085 14.86 78.0085 14.5307V13.1617C78.0085 12.8324 77.7486 12.5725 77.4193 12.5725Z" fill="#E88C01"/>
  <path d="M85.859 15.7091H98.5615L101.906 10.1289L98.7522 12.9363L98.7175 12.9537V12.9883C98.7348 13.0576 98.7348 13.1096 98.7348 13.1443C98.7348 13.7681 98.2149 14.288 97.5911 14.288C96.9672 14.288 96.4473 13.7681 96.4473 13.1443C96.4473 12.711 96.6899 12.3298 97.0539 12.1392L97.0885 12.1218L96.534 7.94543L94.697 11.7233L94.7317 11.7579C94.9397 11.9485 95.0436 12.2085 95.0436 12.4858C95.0436 13.0403 94.5931 13.4909 94.0385 13.4909C93.484 13.4909 93.0334 13.0403 93.0334 12.4858C93.0334 12.0699 93.3107 11.6886 93.7093 11.55L93.7786 11.5326L92.2016 7.00963L90.6246 11.5326L90.6939 11.55C91.0925 11.6886 91.3698 12.0699 91.3698 12.4858C91.3698 13.0403 90.9192 13.4909 90.3647 13.4909C89.8101 13.4909 89.3596 13.0403 89.3596 12.4858C89.3596 12.2085 89.4635 11.9485 89.6715 11.7579L89.7061 11.7233L87.8519 7.96276L87.2973 12.1392L87.332 12.1565C87.7133 12.3471 87.9385 12.7457 87.9385 13.1616C87.9385 13.7855 87.4187 14.3054 86.7948 14.3054C86.1709 14.3054 85.651 13.7855 85.651 13.1616C85.651 13.1096 85.651 13.0576 85.6684 13.0056V12.971L82.4971 10.1289L85.8243 15.6744L85.859 15.7091Z" fill="#E88C01"/>
  <path d="M52.6038 12.9711V13.0058C52.6211 13.0578 52.6211 13.1271 52.6211 13.1618C52.6211 13.7856 52.1012 14.3055 51.4773 14.3055C50.8535 14.3055 50.3336 13.7856 50.3336 13.1618C50.3336 12.7285 50.5762 12.3473 50.9401 12.1566L50.9748 12.1393L50.4202 7.9629L48.5833 11.7407L48.618 11.7754C48.8259 11.966 48.9299 12.226 48.9299 12.5032C48.9299 13.0578 48.4793 13.5083 47.9248 13.5083C47.3702 13.5083 46.9197 13.0578 46.9197 12.5032C46.9197 12.0873 47.197 11.7061 47.5955 11.5674L47.6648 11.5501L46.0879 7.02711L44.5109 11.5501L44.5802 11.5674C44.9788 11.7061 45.256 12.0873 45.256 12.5032C45.256 13.0578 44.8055 13.5083 44.2509 13.5083C43.6964 13.5083 43.2458 13.0578 43.2458 12.5032C43.2458 12.226 43.3498 11.966 43.5578 11.7754L43.5924 11.7407L41.7208 7.9629L41.1663 12.1393L41.2009 12.1566C41.5822 12.3473 41.8075 12.7458 41.8075 13.1618C41.8075 13.7856 41.2876 14.3055 40.6637 14.3055C40.0399 14.3055 39.52 13.7856 39.52 13.1618C39.52 13.1098 39.52 13.0578 39.5373 13.0058V12.9711L36.3833 10.1291L39.7106 15.6745L39.7279 15.7092H52.4305L55.7751 10.1291L52.6211 12.9365L52.6038 12.9711Z" fill="#E88C01"/>
  <path d="M52.2919 16.3332H39.8666C39.624 16.3332 39.416 16.5411 39.416 16.7838V17.8062C39.416 18.0488 39.624 18.2568 39.8666 18.2568H52.2919C52.5345 18.2568 52.7424 18.0488 52.7424 17.8062V16.7838C52.7424 16.5411 52.5345 16.3332 52.2919 16.3332Z" fill="#E88C01"/>
  <path d="M62.4648 14.3229C62.1875 14.3229 61.9795 14.0976 61.9795 13.8376C61.9795 13.5604 62.2048 13.3524 62.4648 13.3524C62.742 13.3524 62.95 13.5777 62.95 13.8376C62.95 14.1149 62.7247 14.3229 62.4648 14.3229Z" fill="#254D18"/>
  <path d="M62.4647 14.3924C62.1527 14.3924 61.9101 14.1497 61.9101 13.8378C61.9101 13.5259 62.1527 13.2833 62.4647 13.2833C62.7766 13.2833 63.0192 13.5259 63.0192 13.8378C63.0192 14.1497 62.7766 14.3924 62.4647 14.3924ZM62.4647 13.4219C62.2394 13.4219 62.0488 13.6125 62.0488 13.8378C62.0488 14.0631 62.2394 14.2537 62.4647 14.2537C62.6899 14.2537 62.8806 14.0631 62.8806 13.8378C62.8806 13.6125 62.6899 13.4219 62.4647 13.4219Z" fill="#254D18"/>
  <path d="M65.8094 14.3229C65.5321 14.3229 65.3241 14.0976 65.3241 13.8377C65.3241 13.5604 65.5494 13.3524 65.8094 13.3524C66.0866 13.3524 66.2946 13.5777 66.2946 13.8377C66.2946 14.1149 66.0693 14.3229 65.8094 14.3229Z" fill="#254D18"/>
  <path d="M65.8095 14.3924C65.4975 14.3924 65.2549 14.1497 65.2549 13.8378C65.2549 13.5259 65.4975 13.2833 65.8095 13.2833C66.1214 13.2833 66.364 13.5259 66.364 13.8378C66.364 14.1497 66.1041 14.3924 65.8095 14.3924ZM65.8095 13.4219C65.5842 13.4219 65.3936 13.6125 65.3936 13.8378C65.3936 14.0631 65.5842 14.2537 65.8095 14.2537C66.0347 14.2537 66.2254 14.0631 66.2254 13.8378C66.2254 13.6125 66.0347 13.4219 65.8095 13.4219Z" fill="#254D18"/>
  <path d="M69.137 14.3229C68.8597 14.3229 68.6517 14.0976 68.6517 13.8377C68.6517 13.5604 68.877 13.3524 69.137 13.3524C69.4142 13.3524 69.6222 13.5777 69.6222 13.8377C69.6395 14.1149 69.4142 14.3229 69.137 14.3229Z" fill="#254D18"/>
  <path d="M69.1368 14.3924C68.8248 14.3924 68.5822 14.1497 68.5822 13.8378C68.5822 13.5259 68.8248 13.2833 69.1368 13.2833C69.4487 13.2833 69.6913 13.5259 69.6913 13.8378C69.6913 14.1497 69.4487 14.3924 69.1368 14.3924ZM69.1368 13.4219C68.9115 13.4219 68.7209 13.6125 68.7209 13.8378C68.7209 14.0631 68.9115 14.2537 69.1368 14.2537C69.3621 14.2537 69.5527 14.0631 69.5527 13.8378C69.57 13.6125 69.3794 13.4219 69.1368 13.4219Z" fill="#254D18"/>
  <path d="M72.481 14.3229C72.2038 14.3229 71.9958 14.0976 71.9958 13.8377C71.9958 13.5604 72.2211 13.3524 72.481 13.3524C72.741 13.3524 72.9663 13.5777 72.9663 13.8377C72.9663 14.1149 72.7583 14.3229 72.481 14.3229Z" fill="#254D18"/>
  <path d="M72.4813 14.3924C72.1694 14.3924 71.9268 14.1497 71.9268 13.8378C71.9268 13.5259 72.1694 13.2833 72.4813 13.2833C72.7932 13.2833 73.0359 13.5259 73.0359 13.8378C73.0359 14.1497 72.7932 14.3924 72.4813 14.3924ZM72.4813 13.4219C72.256 13.4219 72.0654 13.6125 72.0654 13.8378C72.0654 14.0631 72.256 14.2537 72.4813 14.2537C72.7066 14.2537 72.8972 14.0631 72.8972 13.8378C72.9145 13.6125 72.7239 13.4219 72.4813 13.4219Z" fill="#254D18"/>
  <path d="M75.8261 14.3229C75.5488 14.3229 75.3409 14.0976 75.3409 13.8377C75.3409 13.5604 75.5662 13.3524 75.8261 13.3524C76.1034 13.3524 76.3113 13.5777 76.3113 13.8377C76.3113 14.1149 76.0861 14.3229 75.8261 14.3229Z" fill="#254D18"/>
  <path d="M75.8261 14.3924C75.5142 14.3924 75.2716 14.1497 75.2716 13.8378C75.2716 13.5259 75.5142 13.2833 75.8261 13.2833C76.138 13.2833 76.3806 13.5259 76.3806 13.8378C76.3806 14.1497 76.138 14.3924 75.8261 14.3924ZM75.8261 13.4219C75.6008 13.4219 75.4102 13.6125 75.4102 13.8378C75.4102 14.0631 75.6008 14.2537 75.8261 14.2537C76.0514 14.2537 76.242 14.0631 76.242 13.8378C76.242 13.6125 76.0514 13.4219 75.8261 13.4219Z" fill="#254D18"/>
  <path d="M87.194 17.6673C86.9861 17.6673 86.8301 17.5113 86.8301 17.3033C86.8301 17.0954 86.9861 16.9394 87.194 16.9394C87.402 16.9394 87.5579 17.0954 87.5579 17.3033C87.5579 17.494 87.402 17.6673 87.194 17.6673Z" fill="#254D18"/>
  <path d="M87.1939 17.7368C86.9513 17.7368 86.7607 17.5461 86.7607 17.3035C86.7607 17.0609 86.9513 16.8703 87.1939 16.8703C87.4366 16.8703 87.6272 17.0609 87.6272 17.3035C87.6272 17.5288 87.4366 17.7368 87.1939 17.7368ZM87.1939 16.9916C87.0207 16.9916 86.8993 17.1302 86.8993 17.2862C86.8993 17.4422 87.038 17.5808 87.1939 17.5808C87.3672 17.5808 87.4886 17.4422 87.4886 17.2862C87.4886 17.1302 87.3672 16.9916 87.1939 16.9916Z" fill="#254D18"/>
  <path d="M89.7069 17.6669C89.499 17.6669 89.343 17.511 89.343 17.303C89.343 17.095 89.499 16.9391 89.7069 16.9391C89.9149 16.9391 90.0708 17.095 90.0708 17.303C90.0708 17.4936 89.8976 17.6669 89.7069 17.6669Z" fill="#254D18"/>
  <path d="M89.7068 17.7364C89.4642 17.7364 89.2736 17.5458 89.2736 17.3032C89.2736 17.0606 89.4642 16.87 89.7068 16.87C89.9494 16.87 90.1401 17.0606 90.1401 17.3032C90.1401 17.5285 89.9321 17.7364 89.7068 17.7364ZM89.7068 16.9913C89.5335 16.9913 89.4122 17.1299 89.4122 17.2859C89.4122 17.4418 89.5509 17.5805 89.7068 17.5805C89.8801 17.5805 90.0014 17.4418 90.0014 17.2859C90.0014 17.1299 89.8628 16.9913 89.7068 16.9913Z" fill="#254D18"/>
  <path d="M92.2021 17.6669C91.9942 17.6669 91.8382 17.511 91.8382 17.303C91.8382 17.095 91.9942 16.9391 92.2021 16.9391C92.4101 16.9391 92.5661 17.095 92.5661 17.303C92.5661 17.4936 92.4101 17.6669 92.2021 17.6669Z" fill="#254D18"/>
  <path d="M92.2022 17.7364C91.9596 17.7364 91.769 17.5458 91.769 17.3032C91.769 17.0606 91.9596 16.87 92.2022 16.87C92.4449 16.87 92.6355 17.0606 92.6355 17.3032C92.6355 17.5285 92.4449 17.7364 92.2022 17.7364ZM92.2022 16.9913C92.029 16.9913 91.9076 17.1299 91.9076 17.2859C91.9076 17.4418 92.0463 17.5805 92.2022 17.5805C92.3582 17.5805 92.4968 17.4418 92.4968 17.2859C92.4968 17.1299 92.3755 16.9913 92.2022 16.9913Z" fill="#254D18"/>
  <path d="M94.7151 17.6669C94.5071 17.6669 94.3511 17.511 94.3511 17.303C94.3511 17.095 94.5071 16.9391 94.7151 16.9391C94.923 16.9391 95.079 17.095 95.079 17.303C95.079 17.4936 94.923 17.6669 94.7151 17.6669Z" fill="#254D18"/>
  <path d="M94.7151 17.7364C94.4725 17.7364 94.2819 17.5458 94.2819 17.3032C94.2819 17.0606 94.4725 16.87 94.7151 16.87C94.9578 16.87 95.1484 17.0606 95.1484 17.3032C95.1484 17.5285 94.9578 17.7364 94.7151 17.7364ZM94.7151 16.9913C94.5418 16.9913 94.4205 17.1299 94.4205 17.2859C94.4205 17.4418 94.5592 17.5805 94.7151 17.5805C94.8711 17.5805 95.0098 17.4418 95.0098 17.2859C95.0098 17.1299 94.8711 16.9913 94.7151 16.9913Z" fill="#254D18"/>
  <path d="M97.2108 17.6669C97.0028 17.6669 96.8468 17.511 96.8468 17.303C96.8468 17.095 97.0028 16.9391 97.2108 16.9391C97.4187 16.9391 97.5747 17.095 97.5747 17.303C97.592 17.4936 97.4187 17.6669 97.2108 17.6669Z" fill="#254D18"/>
  <path d="M97.2106 17.7364C96.9679 17.7364 96.7773 17.5458 96.7773 17.3032C96.7773 17.0606 96.9679 16.87 97.2106 16.87C97.4532 16.87 97.6438 17.0606 97.6438 17.3032C97.6438 17.5285 97.4532 17.7364 97.2106 17.7364ZM97.2106 16.9913C97.0373 16.9913 96.916 17.1299 96.916 17.2859C96.916 17.4418 97.0546 17.5805 97.2106 17.5805C97.3839 17.5805 97.5052 17.4418 97.5052 17.2859C97.5052 17.1299 97.3839 16.9913 97.2106 16.9913Z" fill="#254D18"/>
  <path d="M41.0628 17.6673C40.8549 17.6673 40.6989 17.5113 40.6989 17.3033C40.6989 17.0954 40.8549 16.9394 41.0628 16.9394C41.2708 16.9394 41.4267 17.0954 41.4267 17.3033C41.4441 17.494 41.2708 17.6673 41.0628 17.6673Z" fill="#254D18"/>
  <path d="M41.0627 17.7368C40.8201 17.7368 40.6295 17.5461 40.6295 17.3035C40.6295 17.0609 40.8201 16.8703 41.0627 16.8703C41.3054 16.8703 41.496 17.0609 41.496 17.3035C41.496 17.5288 41.3054 17.7368 41.0627 17.7368ZM41.0627 16.9916C40.8895 16.9916 40.7681 17.1302 40.7681 17.2862C40.7681 17.4422 40.9068 17.5808 41.0627 17.5808C41.236 17.5808 41.3573 17.4422 41.3573 17.2862C41.3573 17.1302 41.236 16.9916 41.0627 16.9916Z" fill="#254D18"/>
  <path d="M43.5757 17.6669C43.3678 17.6669 43.2118 17.511 43.2118 17.303C43.2118 17.095 43.3678 16.9391 43.5757 16.9391C43.7837 16.9391 43.9397 17.095 43.9397 17.303C43.9397 17.4936 43.7837 17.6669 43.5757 17.6669Z" fill="#254D18"/>
  <path d="M43.5756 17.7364C43.333 17.7364 43.1424 17.5458 43.1424 17.3032C43.1424 17.0606 43.333 16.87 43.5756 16.87C43.8182 16.87 44.0089 17.0606 44.0089 17.3032C44.0089 17.5285 43.8182 17.7364 43.5756 17.7364ZM43.5756 16.9913C43.4023 16.9913 43.281 17.1299 43.281 17.2859C43.281 17.4418 43.4197 17.5805 43.5756 17.5805C43.7489 17.5805 43.8702 17.4418 43.8702 17.2859C43.8702 17.1299 43.7489 16.9913 43.5756 16.9913Z" fill="#254D18"/>
  <path d="M46.0884 17.6669C45.8805 17.6669 45.7245 17.511 45.7245 17.303C45.7245 17.095 45.8805 16.9391 46.0884 16.9391C46.2964 16.9391 46.4523 17.095 46.4523 17.303C46.4523 17.4936 46.279 17.6669 46.0884 17.6669Z" fill="#254D18"/>
  <path d="M46.0885 17.7364C45.8459 17.7364 45.6553 17.5458 45.6553 17.3032C45.6553 17.0606 45.8459 16.87 46.0885 16.87C46.3311 16.87 46.5218 17.0606 46.5218 17.3032C46.5218 17.5285 46.3138 17.7364 46.0885 17.7364ZM46.0885 16.9913C45.9152 16.9913 45.7939 17.1299 45.7939 17.2859C45.7939 17.4418 45.9326 17.5805 46.0885 17.5805C46.2618 17.5805 46.3831 17.4418 46.3831 17.2859C46.3831 17.1299 46.2445 16.9913 46.0885 16.9913Z" fill="#254D18"/>
  <path d="M48.5841 17.6669C48.3761 17.6669 48.2202 17.511 48.2202 17.303C48.2202 17.095 48.3761 16.9391 48.5841 16.9391C48.7921 16.9391 48.948 17.095 48.948 17.303C48.948 17.4936 48.7921 17.6669 48.5841 17.6669Z" fill="#254D18"/>
  <path d="M48.5842 17.7364C48.3416 17.7364 48.1509 17.5458 48.1509 17.3032C48.1509 17.0606 48.3416 16.87 48.5842 16.87C48.8268 16.87 49.0174 17.0606 49.0174 17.3032C49.0174 17.5285 48.8268 17.7364 48.5842 17.7364ZM48.5842 16.9913C48.4109 16.9913 48.2896 17.1299 48.2896 17.2859C48.2896 17.4418 48.4282 17.5805 48.5842 17.5805C48.7575 17.5805 48.8788 17.4418 48.8788 17.2859C48.8788 17.1299 48.7575 16.9913 48.5842 16.9913Z" fill="#254D18"/>
  <path d="M51.0968 17.6669C50.8888 17.6669 50.7329 17.511 50.7329 17.303C50.7329 17.095 50.8888 16.9391 51.0968 16.9391C51.3048 16.9391 51.4607 17.095 51.4607 17.303C51.4607 17.4936 51.2874 17.6669 51.0968 17.6669Z" fill="#254D18"/>
  <path d="M51.0968 17.7364C50.8542 17.7364 50.6636 17.5458 50.6636 17.3032C50.6636 17.0606 50.8542 16.87 51.0968 16.87C51.3394 16.87 51.5301 17.0606 51.5301 17.3032C51.5301 17.5285 51.3221 17.7364 51.0968 17.7364ZM51.0968 16.9913C50.9235 16.9913 50.8022 17.1299 50.8022 17.2859C50.8022 17.4418 50.9409 17.5805 51.0968 17.5805C51.2701 17.5805 51.3914 17.4418 51.3914 17.2859C51.3914 17.1299 51.2528 16.9913 51.0968 16.9913Z" fill="#254D18"/>
</svg>
